<svg id="visual" viewBox="0 0 960 540" width="960" height="540" xmlns="http://www.w3.org/2000/svg" xmlns:xlink="http://www.w3.org/1999/xlink" version="1.1"><rect x="0" y="0" width="960" height="540" fill="#f2f2f2"></rect><defs><linearGradient id="grad1_0" x1="43.8%" y1="100%" x2="100%" y2="0%"><stop offset="14.444444444444446%" stop-color="#f2f2f2" stop-opacity="1"></stop><stop offset="85.55555555555554%" stop-color="#f2f2f2" stop-opacity="1"></stop></linearGradient></defs><defs><linearGradient id="grad2_0" x1="0%" y1="100%" x2="56.3%" y2="0%"><stop offset="14.444444444444446%" stop-color="#f2f2f2" stop-opacity="1"></stop><stop offset="85.55555555555554%" stop-color="#f2f2f2" stop-opacity="1"></stop></linearGradient></defs><g transform="translate(960, 540)"><path d="M-513 0C-480.3 -47.6 -447.5 -95.3 -420.4 -136.6C-393.2 -177.9 -371.6 -212.9 -351.9 -255.7C-332.3 -298.5 -314.5 -349.2 -282.1 -388.3C-249.8 -427.5 -202.7 -455.2 -153.3 -471.7C-103.8 -488.3 -51.9 -493.6 0 -499L0 0Z" fill="#1a237e"></path></g><g transform="translate(0, 0)"><path d="M452 0C469.7 57 487.4 114.1 463.2 150.5C439 186.9 372.9 202.7 346.3 251.6C319.6 300.4 332.3 382.3 301.5 415C270.8 447.8 196.6 431.5 139.1 428C81.6 424.5 40.8 433.7 0 443L0 0Z" fill="#1a237e"></path></g></svg>