<svg id="visual" viewBox="0 0 960 540" width="960" height="540" xmlns="http://www.w3.org/2000/svg" xmlns:xlink="http://www.w3.org/1999/xlink" version="1.1"><path d="M0 304L53 304L53 282L107 282L107 291L160 291L160 307L213 307L213 283L267 283L267 307L320 307L320 311L373 311L373 295L427 295L427 306L480 306L480 312L533 312L533 301L587 301L587 288L640 288L640 291L693 291L693 301L747 301L747 294L800 294L800 298L853 298L853 285L907 285L907 300L960 300L960 298L960 0L960 0L907 0L907 0L853 0L853 0L800 0L800 0L747 0L747 0L693 0L693 0L640 0L640 0L587 0L587 0L533 0L533 0L480 0L480 0L427 0L427 0L373 0L373 0L320 0L320 0L267 0L267 0L213 0L213 0L160 0L160 0L107 0L107 0L53 0L53 0L0 0Z" fill="#1a237e"></path><path d="M0 279L53 279L53 289L107 289L107 291L160 291L160 283L213 283L213 266L267 266L267 270L320 270L320 258L373 258L373 264L427 264L427 257L480 257L480 260L533 260L533 285L587 285L587 276L640 276L640 282L693 282L693 280L747 280L747 287L800 287L800 270L853 270L853 256L907 256L907 280L960 280L960 287L960 0L960 0L907 0L907 0L853 0L853 0L800 0L800 0L747 0L747 0L693 0L693 0L640 0L640 0L587 0L587 0L533 0L533 0L480 0L480 0L427 0L427 0L373 0L373 0L320 0L320 0L267 0L267 0L213 0L213 0L160 0L160 0L107 0L107 0L53 0L53 0L0 0Z" fill="#323990"></path><path d="M0 252L53 252L53 240L107 240L107 254L160 254L160 244L213 244L213 259L267 259L267 246L320 246L320 248L373 248L373 256L427 256L427 257L480 257L480 242L533 242L533 238L587 238L587 245L640 245L640 239L693 239L693 232L747 232L747 246L800 246L800 257L853 257L853 254L907 254L907 263L960 263L960 245L960 0L960 0L907 0L907 0L853 0L853 0L800 0L800 0L747 0L747 0L693 0L693 0L640 0L640 0L587 0L587 0L533 0L533 0L480 0L480 0L427 0L427 0L373 0L373 0L320 0L320 0L267 0L267 0L213 0L213 0L160 0L160 0L107 0L107 0L53 0L53 0L0 0Z" fill="#474fa1"></path><path d="M0 218L53 218L53 227L107 227L107 237L160 237L160 220L213 220L213 232L267 232L267 217L320 217L320 224L373 224L373 218L427 218L427 220L480 220L480 227L533 227L533 208L587 208L587 235L640 235L640 237L693 237L693 220L747 220L747 232L800 232L800 217L853 217L853 223L907 223L907 223L960 223L960 217L960 0L960 0L907 0L907 0L853 0L853 0L800 0L800 0L747 0L747 0L693 0L693 0L640 0L640 0L587 0L587 0L533 0L533 0L480 0L480 0L427 0L427 0L373 0L373 0L320 0L320 0L267 0L267 0L213 0L213 0L160 0L160 0L107 0L107 0L53 0L53 0L0 0Z" fill="#5b65b3"></path><path d="M0 204L53 204L53 191L107 191L107 184L160 184L160 182L213 182L213 191L267 191L267 196L320 196L320 193L373 193L373 201L427 201L427 185L480 185L480 206L533 206L533 201L587 201L587 195L640 195L640 188L693 188L693 195L747 195L747 209L800 209L800 199L853 199L853 210L907 210L907 182L960 182L960 195L960 0L960 0L907 0L907 0L853 0L853 0L800 0L800 0L747 0L747 0L693 0L693 0L640 0L640 0L587 0L587 0L533 0L533 0L480 0L480 0L427 0L427 0L373 0L373 0L320 0L320 0L267 0L267 0L213 0L213 0L160 0L160 0L107 0L107 0L53 0L53 0L0 0Z" fill="#707dc4"></path><path d="M0 173L53 173L53 175L107 175L107 178L160 178L160 159L213 159L213 183L267 183L267 164L320 164L320 159L373 159L373 163L427 163L427 184L480 184L480 170L533 170L533 184L587 184L587 159L640 159L640 187L693 187L693 158L747 158L747 166L800 166L800 170L853 170L853 172L907 172L907 171L960 171L960 188L960 0L960 0L907 0L907 0L853 0L853 0L800 0L800 0L747 0L747 0L693 0L693 0L640 0L640 0L587 0L587 0L533 0L533 0L480 0L480 0L427 0L427 0L373 0L373 0L320 0L320 0L267 0L267 0L213 0L213 0L160 0L160 0L107 0L107 0L53 0L53 0L0 0Z" fill="#7986cb"></path><path d="M0 140L53 140L53 157L107 157L107 159L160 159L160 153L213 153L213 152L267 152L267 165L320 165L320 140L373 140L373 157L427 157L427 161L480 161L480 133L533 133L533 139L587 139L587 140L640 140L640 165L693 165L693 139L747 139L747 162L800 162L800 164L853 164L853 146L907 146L907 154L960 154L960 165L960 0L960 0L907 0L907 0L853 0L853 0L800 0L800 0L747 0L747 0L693 0L693 0L640 0L640 0L587 0L587 0L533 0L533 0L480 0L480 0L427 0L427 0L373 0L373 0L320 0L320 0L267 0L267 0L213 0L213 0L160 0L160 0L107 0L107 0L53 0L53 0L0 0Z" fill="#7986cb"></path><path d="M0 113L53 113L53 134L107 134L107 110L160 110L160 124L213 124L213 121L267 121L267 108L320 108L320 126L373 126L373 107L427 107L427 130L480 130L480 136L533 136L533 129L587 129L587 126L640 126L640 139L693 139L693 129L747 129L747 117L800 117L800 126L853 126L853 113L907 113L907 133L960 133L960 113L960 0L960 0L907 0L907 0L853 0L853 0L800 0L800 0L747 0L747 0L693 0L693 0L640 0L640 0L587 0L587 0L533 0L533 0L480 0L480 0L427 0L427 0L373 0L373 0L320 0L320 0L267 0L267 0L213 0L213 0L160 0L160 0L107 0L107 0L53 0L53 0L0 0Z" fill="#707dc4"></path><path d="M0 100L53 100L53 92L107 92L107 87L160 87L160 89L213 89L213 83L267 83L267 90L320 90L320 95L373 95L373 103L427 103L427 82L480 82L480 103L533 103L533 106L587 106L587 114L640 114L640 105L693 105L693 107L747 107L747 85L800 85L800 91L853 91L853 88L907 88L907 91L960 91L960 103L960 0L960 0L907 0L907 0L853 0L853 0L800 0L800 0L747 0L747 0L693 0L693 0L640 0L640 0L587 0L587 0L533 0L533 0L480 0L480 0L427 0L427 0L373 0L373 0L320 0L320 0L267 0L267 0L213 0L213 0L160 0L160 0L107 0L107 0L53 0L53 0L0 0Z" fill="#5b65b3"></path><path d="M0 77L53 77L53 90L107 90L107 73L160 73L160 78L213 78L213 79L267 79L267 87L320 87L320 77L373 77L373 72L427 72L427 72L480 72L480 84L533 84L533 70L587 70L587 61L640 61L640 58L693 58L693 82L747 82L747 70L800 70L800 89L853 89L853 75L907 75L907 88L960 88L960 90L960 0L960 0L907 0L907 0L853 0L853 0L800 0L800 0L747 0L747 0L693 0L693 0L640 0L640 0L587 0L587 0L533 0L533 0L480 0L480 0L427 0L427 0L373 0L373 0L320 0L320 0L267 0L267 0L213 0L213 0L160 0L160 0L107 0L107 0L53 0L53 0L0 0Z" fill="#474fa1"></path><path d="M0 42L53 42L53 39L107 39L107 39L160 39L160 57L213 57L213 65L267 65L267 53L320 53L320 66L373 66L373 48L427 48L427 42L480 42L480 62L533 62L533 34L587 34L587 34L640 34L640 45L693 45L693 64L747 64L747 40L800 40L800 64L853 64L853 52L907 52L907 49L960 49L960 43L960 0L960 0L907 0L907 0L853 0L853 0L800 0L800 0L747 0L747 0L693 0L693 0L640 0L640 0L587 0L587 0L533 0L533 0L480 0L480 0L427 0L427 0L373 0L373 0L320 0L320 0L267 0L267 0L213 0L213 0L160 0L160 0L107 0L107 0L53 0L53 0L0 0Z" fill="#323990"></path><path d="M0 33L53 33L53 20L107 20L107 16L160 16L160 24L213 24L213 10L267 10L267 12L320 12L320 38L373 38L373 39L427 39L427 18L480 18L480 19L533 19L533 8L587 8L587 33L640 33L640 11L693 11L693 16L747 16L747 21L800 21L800 27L853 27L853 19L907 19L907 14L960 14L960 33L960 0L960 0L907 0L907 0L853 0L853 0L800 0L800 0L747 0L747 0L693 0L693 0L640 0L640 0L587 0L587 0L533 0L533 0L480 0L480 0L427 0L427 0L373 0L373 0L320 0L320 0L267 0L267 0L213 0L213 0L160 0L160 0L107 0L107 0L53 0L53 0L0 0Z" fill="#1a237e"></path></svg>